Coordinates
version=1
nRows=9
nColumns=42
inDegrees=yes

Units are S.I. units (second, meters, Newtons, ...)
If the header above contains a line with 'inDegrees', this indicates whether rotational values are in degrees (yes) or radians (no).

endheader
time	pelvis_tilt	pelvis_list	pelvis_rotation	pelvis_tx	pelvis_ty	pelvis_tz	hip_flexion_r	hip_adduction_r	hip_rotation_r	knee_angle_r	knee_adduction_r	knee_angle_r_beta	ankle_angle_r	subtalar_angle_r	mtp_angle_r	hip_flexion_l	hip_adduction_l	hip_rotation_l	knee_angle_l	knee_adduction_l	knee_angle_l_beta	ankle_angle_l	subtalar_angle_l	mtp_angle_l	lumbar_extension	lumbar_bending	lumbar_rotation	arm_flex_r	arm_add_r	arm_rot_r	elbow_flex_r	pro_sup_r	wrist_flex_r	wrist_dev_r	arm_flex_l	arm_add_l	arm_rot_l	elbow_flex_l	pro_sup_l	wrist_flex_l	wrist_dev_l
      1.45000000	     10.71692701	     -1.31156988	     10.49949801	     -0.15969133	      0.87908631	      0.19733172	     -6.72286627	     10.65508633	     -2.32054848	     15.92067750	     -1.30467738	      0.27786824	     21.66603546	    -11.12823530	     -7.57907983	     15.56675362	      2.06934820	     -0.09270181	     53.41693799	    -10.70882032	      0.93230144	     16.77598528	    -16.09634335	     -7.57907983	    -40.59819267	      5.70504222	     -1.94793578	     17.44741797	     -9.72566379	     -5.03115535	     37.13366952	     90.00000001	      0.00000000	      0.00000000	     14.65226430	     -7.62709686	    -15.37185456	     24.87792697	     90.00000001	      0.00000000	      0.00000000
      1.46000000	     10.51797927	     -1.46811553	     10.51745141	     -0.15165172	      0.87791702	      0.19745905	     -7.04005431	     11.06704968	     -2.39818914	     15.98911868	     -1.64987489	      0.27906277	     22.12399169	    -10.95192491	     -7.57776253	     16.72941635	      2.04553937	     -0.05933861	     51.64990092	    -10.31082862	      0.90146083	     16.69018415	    -15.48716709	     -7.57776253	    -40.28875821	      5.82052779	     -1.88090734	     17.96238120	     -9.86336464	     -4.91479816	     37.55512604	     90.00000001	      0.00000000	      0.00000000	     14.17839855	     -7.57074848	    -15.51515218	     24.71008734	     90.00000001	      0.00000000	      0.00000000
      1.47000000	     10.73376328	     -1.32514871	     10.43104257	     -0.14322448	      0.87786245	      0.19727391	     -8.24443429	     11.03683357	     -1.84038952	     15.47737590	     -1.52993108	      0.27013117	     22.50069161	    -11.09264255	     -7.57261497	     16.94764856	      2.29634754	      0.16444872	     49.23717303	     -9.64633876	      0.85935078	     16.37452846	    -15.23229803	     -7.57261497	    -40.45441365	      5.69564656	     -1.89100833	     18.48367064	    -10.09047990	     -4.28250071	     38.06233426	     90.00000001	      0.00000000	      0.00000000	     14.05875161	     -7.39811943	    -16.84610330	     24.02354039	     90.00000001	      0.00000000	      0.00000000
      1.48000000	     10.54532757	     -1.48409430	     10.41471164	     -0.13522645	      0.87651037	      0.19726586	     -8.55691028	     11.41049944	     -1.91786335	     15.59830138	     -1.81948812	      0.27224172	     23.05570288	    -10.92451419	     -7.57119394	     17.98434815	      2.21568994	      0.11199484	     47.21662110	     -9.13422071	      0.82408550	     16.32232213	    -14.52239590	     -7.57119394	    -40.16490652	      5.82570611	     -1.78046982	     18.99041062	    -10.23682496	     -4.15510465	     38.46729714	     90.00000001	      0.00000000	      0.00000000	     13.66289894	     -7.33242998	    -16.93884040	     23.84442011	     90.00000001	      0.00000000	      0.00000000
      1.49000000	     10.52911339	     -1.49057445	     10.31318402	     -0.12701115	      0.87557900	      0.19717517	     -9.18950896	     11.55955276	     -1.87768352	     15.59989031	     -1.96177846	      0.27226945	     23.71942778	    -10.71120796	     -7.56955510	     18.56393860	      2.23483698	     -0.00777261	     44.83052443	     -8.52753497	      0.78244026	     16.24287211	    -13.77071477	     -7.56955510	    -40.06930220	      5.79693152	     -1.69492856	     19.50193823	    -10.40499153	     -3.87217167	     38.89807538	     90.00000001	      0.00000000	      0.00000000	     13.36931563	     -7.28442005	    -17.21904760	     23.54154625	     90.00000001	      0.00000000	      0.00000000
      1.50000000	     10.75006123	     -1.37815328	     10.23529475	     -0.11848015	      0.87518142	      0.19671606	    -10.36586433	     11.45452775	     -1.67437597	     15.15673114	     -1.73705073	      0.26453486	     24.11047488	    -10.32261965	     -7.56648907	     18.66425944	      2.38145595	     -0.51456848	     42.12636581	     -8.18259069	      0.73524379	     16.11644108	    -12.92248936	     -7.56648907	    -40.23094993	      5.72714815	     -1.69043384	     19.97454292	    -10.58906723	     -3.34136256	     39.37118719	     90.00000001	      0.00000000	      0.00000000	     13.15217296	     -7.15388052	    -18.05698888	     23.19116217	     90.00000001	      0.00000000	      0.00000000
      1.51000000	     10.57997208	     -1.57185059	     10.16117734	     -0.11046278	      0.87364233	      0.19662216	    -10.72478101	     11.84505486	     -1.71985906	     15.23638031	     -2.03732068	      0.26592500	     24.67858009	    -10.12292873	     -7.56507256	     19.51783995	      2.14784416	     -0.94736675	     39.86620767	     -7.62509999	      0.69579658	     16.05011222	    -12.02230659	     -7.56507256	    -39.97436184	      5.87670461	     -1.53667331	     20.47667743	    -10.71082201	     -3.16626957	     39.74622865	     90.00000001	      0.00000000	      0.00000000	     12.81691633	     -7.06122055	    -18.23795674	     23.12410331	     90.00000001	      0.00000000	      0.00000000
      1.52000000	     10.86249512	     -1.49968874	      9.98596994	     -0.10182218	      0.87318296	      0.19625661	    -12.04624621	     11.80157917	     -1.19262813	     14.68512576	     -1.82974577	      0.25630380	     24.97912021	    -10.08394564	     -7.55810513	     19.48342975	      2.08744396	     -2.15839562	     37.12547840	     -7.39294657	      0.64796183	     16.34525037	     -9.92426535	     -7.55810513	    -40.20445011	      5.80948410	     -1.45638657	     20.98401108	    -10.89338972	     -2.61716696	     40.17024122	     90.00000001	      0.00000000	      0.00000000	     12.70334244	     -6.90543159	    -19.43307670	     22.74316377	     90.00000001	      0.00000000	      0.00000000
      1.53000000	     10.91003046	     -1.47486877	      9.84342449	     -0.09348003	      0.87212577	      0.19589907	    -12.83066936	     11.80815089	     -1.22421731	     14.57246965	     -1.84265986	      0.25433758	     25.54788122	     -9.63849575	     -7.55560183	     19.75060165	      2.03329376	     -3.04507605	     34.56798505	     -6.92091319	      0.60332515	     16.44632527	     -8.43036258	     -7.55560183	    -40.19646573	      5.76198985	     -1.38134563	     21.45799415	    -11.00370207	     -2.31855328	     40.52761115	     90.00000001	      0.00000000	      0.00000000	     12.43829062	     -6.85296173	    -19.61938237	     22.66289196	     90.00000001	      0.00000000	      0.00000000
